<svg xmlns="http://www.w3.org/2000/svg" viewBox="0 0 64 64" width="64" height="64" role="img" aria-label="매일이 캐릭터">
  <rect width="64" height="64" rx="16" fill="#DEF5E9"/>
  <path d="M32 18c0-4-3-7-7-7 0 4 3 7 7 7z" fill="#46C08A"/>
  <path d="M32 18c0-4 3-7 7-7 0 4-3 7-7 7z" fill="#5ED6A0"/>
  <path d="M32 12v7" stroke="#2e9b6e" stroke-width="2" stroke-linecap="round"/>
  <circle cx="32" cy="37" r="15" fill="#46C08A"/>
  <circle cx="26.5" cy="35" r="3.4" fill="#fff"/>
  <circle cx="37.5" cy="35" r="3.4" fill="#fff"/>
  <circle cx="27" cy="35.6" r="1.7" fill="#1c4a37"/>
  <circle cx="38" cy="35.6" r="1.7" fill="#1c4a37"/>
  <circle cx="22" cy="41" r="2.1" fill="#2e9b6e" opacity="0.45"/>
  <circle cx="43" cy="41" r="2.1" fill="#2e9b6e" opacity="0.45"/>
  <path d="M29 42c1.6 2 4.4 2 6 0" stroke="#1c4a37" stroke-width="2.2" fill="none" stroke-linecap="round"/>
</svg>
